<svg contentScriptType="text/ecmascript" xmlns:xlink="http://www.w3.org/1999/xlink" zoomAndPan="magnify" contentStyleType="text/css" preserveAspectRatio="xMidYMid meet" xmlns="http://www.w3.org/2000/svg" version="1.0"><defs id="defs"><g id="note" transform="translate(0,0)">
    <path transform="matrix(0.9625895,-0.270964,0.270964,0.9625895,-146.021,-25.12834)" style="opacity:0.98999999;fill:#000000;fill-opacity:1;stroke-width:23.5;stroke-miterlimit:4;stroke-dasharray:none" sodipodi:cx="129.60875" sodipodi:cy="65.152527" sodipodi:rx="3.6803713" d="M 133.28912 65.152527 A 3.6803713 2.2877984 0 1 1  125.92838,65.152527 A 3.6803713 2.2877984 0 1 1  133.28912 65.152527 z" id="path2226" sodipodi:ry="2.2877984" sodipodi:type="arc" inkscape:transform-center-y="-4.3766577" inkscape:transform-center-x="1.0941644"/>
  </g><g id="note_blanche" transform="translate(0,0)">
    <path style="font-size:12px;font-style:normal;font-weight:normal;fill:#000000;fill-opacity:1;stroke:none;stroke-width:1px;stroke-linecap:butt;stroke-linejoin:miter;stroke-opacity:1;font-family:Power Tab" d="M -0.43497358,2.587498 C -0.66910358,3.482174 -1.2335036,4.238886 -2.1281736,4.857636 C -2.9643236,5.442936 -3.8213736,5.735587 -4.6993236,5.73559 C -5.3097136,5.735587 -5.8114036,5.568358 -6.2043936,5.233902 C -6.6391836,4.882718 -6.8565836,4.401934 -6.8565836,3.791549 C -6.8565836,3.57415 -6.8273236,3.352571 -6.7687936,3.126812 C -6.5263036,2.223774 -5.9619136,1.462882 -5.0755936,0.84413196 C -4.2394436,0.26719296 -3.3824036,-0.021278038 -2.5044436,-0.021280038 C -1.8940636,-0.021278038 -1.3881936,0.14177096 -0.98683358,0.46786596 C -0.55204358,0.82741096 -0.33464358,1.308194 -0.33464358,1.910219 C -0.33464358,2.127617 -0.36809358,2.353377 -0.43497358,2.587498 L -0.43497358,2.587498 z M -0.82378358,1.847508 C -0.67328358,1.278929 -0.91158358,0.99463996 -1.5386936,0.99463796 C -2.2745036,0.99463996 -3.1942636,1.320737 -4.2979736,1.97293 C -5.4518636,2.650209 -6.1165936,3.306583 -6.2921836,3.942055 C -6.4426936,4.510633 -6.2043936,4.794923 -5.5772836,4.794925 C -4.8414736,4.794923 -3.9217136,4.468826 -2.8179936,3.816633 C -1.6641236,3.139354 -0.99938358,2.48298 -0.82378358,1.847508 L -0.82378358,1.847508 z " id="text2180"/>
  </g><g id="score_bar" transform="translate(0,0)">
    <rect x="0" width="65.552734" id="rect2168" height="0.35167775" y="0" style="opacity:0.98999999;fill:#000000;fill-opacity:1;stroke-width:0.2;stroke-miterlimit:4;stroke-dasharray:none"/>
  </g><g x="50" id="ancre" y="0" transform="translate(0,0)">
    <path sodipodi:nodetypes="ccssccccccccc" d="M 5.5455364,-3.905907 C 5.5455264,-2.102254 5.0441034,-0.125439 4.0412734,2.024544 C 4.2216334,1.209272 4.4056134,0.394017 4.5931934,-0.421226 C 4.8024134,-1.380788 4.9070234,-2.206866 4.9070334,-2.899462 C 4.9070234,-5.1432302 3.4208034,-7.1633332 0.4483734,-8.9597772 L 0.4483734,-8.1156622 L 0.037133345,-8.1048402 L 0.037133345,-13.905427 L 0.4591934,-13.927071 C 0.7694234,-12.549072 1.3033034,-11.373084 2.0608434,-10.399102 C 2.9049634,-9.4756302 3.7490734,-8.5521542 4.5931934,-7.6286722 C 5.2280864,-6.7917792 5.5455264,-5.5508582 5.5455364,-3.905907 L 5.5455364,-3.905907 z " id="text2236" style="font-size:22.1634388px;font-style:normal;font-weight:normal;fill:#000000;fill-opacity:1;stroke:none;stroke-width:1px;stroke-linecap:butt;stroke-linejoin:miter;stroke-opacity:1;font-family:Power Tab"/>
  </g><g id="ancre2" transform="translate(0,0)">
    <use x="0" y="0" width="400" xmlns:xlink="http://www.w3.org/1999/xlink" xlink:href="#text2236" xlink:type="simple" xlink:actuate="onLoad" id="use2180" height="300" xlink:show="embed"/>
    <use x="0" y="0" transform="translate(-1.7509617e-2,4.608085)" width="400" xmlns:xlink="http://www.w3.org/1999/xlink" xlink:href="#text2236" xlink:type="simple" xlink:actuate="onLoad" id="use2188" height="300" xlink:show="embed"/>
  </g><g id="ancre3" transform="translate(0,0)">
    <path style="font-size:20.94305038px;font-style:normal;font-weight:normal;fill:#000000;fill-opacity:1;stroke:none;stroke-width:1px;stroke-linecap:butt;stroke-linejoin:miter;stroke-opacity:1;font-family:Power Tab" d="M 5.2050849,-3.9054554 C 5.2050797,-3.3055346 5.1369058,-2.8760388 5.0005629,-2.616967 C 4.7960361,-2.2761083 4.5949231,-1.9386474 4.3972231,-1.6045832 C 4.4585752,-1.9522822 4.5165231,-2.1942996 4.5710668,-2.3306362 C 4.5915144,-2.3442822 4.6085579,-2.3647344 4.6221973,-2.3919928 C 4.6221926,-2.4806301 4.6187839,-2.6135692 4.6119712,-2.7908106 C 4.6051492,-2.9680736 4.6017405,-3.1010128 4.6017451,-3.1896285 C 4.6017405,-5.3030305 3.1973576,-7.2119004 0.38859235,-8.9162438 L 0.38859235,-8.1186081 L 5.9034738e-007,-8.108382 L 5.9034738e-007,-13.589571 L 0.39881844,-13.610023 C 0.69196592,-12.301084 1.196453,-11.189849 1.9122811,-10.276315 C 2.7099141,-9.4036921 3.507549,-8.5276571 4.3051882,-7.6482076 C 4.9051144,-6.8642134 5.2050797,-5.6950306 5.2050849,-4.1406557 L 5.2050849,-3.9054554 z M 5.2050849,-0.22405984 C 5.2050797,0.41676168 5.1437232,0.85648349 5.0210151,1.0951069 C 4.8096709,1.456414 4.6017405,1.8177358 4.3972231,2.1790734 C 4.4585752,1.8450054 4.5165231,1.5961706 4.5710668,1.4325682 C 4.6051492,1.3507444 4.6221926,1.3132488 4.6221973,1.3200811 C 4.6221926,1.2314401 4.6187839,1.0950922 4.6119712,0.91103713 C 4.6051492,0.72695303 4.6017405,0.58719649 4.6017451,0.49176708 C 4.6017405,-1.6216386 3.1973576,-3.5305085 0.38859235,-5.2348483 L 0.38859235,-4.4372126 L 5.9034738e-007,-4.4269865 L 5.9034738e-007,-9.9081754 L 0.39881844,-9.9286276 C 0.69196592,-8.6196919 1.196453,-7.508457 1.9122811,-6.5949194 C 2.7099141,-5.7223002 3.507549,-4.8462653 4.3051882,-3.966812 C 4.9051144,-3.1828215 5.2050797,-2.0136387 5.2050849,-0.45926011 L 5.2050849,-0.22405984 z M 5.2050849,3.1812311 C 5.2050797,4.8855624 4.7312709,6.7535279 3.7836572,8.7851332 C 3.9540882,8.0147455 4.1279317,7.2443802 4.3051882,6.4740349 C 4.5028883,5.5673016 4.6017405,4.7867102 4.6017451,4.1322583 C 4.6017405,2.0120315 3.1973576,0.10316163 0.38859235,-1.5943571 L 0.38859235,-0.79672137 L 5.9034738e-007,-0.78649528 L 5.9034738e-007,-6.2676842 L 0.39881844,-6.2881364 C 0.69196592,-4.9860218 1.196453,-3.8747868 1.9122811,-2.9544282 C 2.7099141,-2.0818126 3.507549,-1.2091864 4.3051882,-0.33654693 C 4.9051144,0.45425734 5.2050797,1.6268488 5.2050849,3.1812311 L 5.2050849,3.1812311 z " id="text2240"/>
  </g><g id="barre" transform="translate(0,0)">
    <rect x="0" width="0.99469495" id="rect2228" height="15.616711" y="-16" style="opacity:0.98999999;fill:#000000;fill-opacity:1;stroke-width:23.5;stroke-miterlimit:4;stroke-dasharray:none"/>
  </g><g id="key" transform="translate(0,0)">
    <path style="font-size:12px;font-style:normal;font-weight:normal;fill:#000000;fill-opacity:1;stroke:none;stroke-width:1px;stroke-linecap:butt;stroke-linejoin:miter;stroke-opacity:1;font-family:Power Tab" d="M 3.0231675,19.563741 C 3.0231548,20.670166 2.7325432,21.657546 2.1513316,22.525882 C 1.5490886,23.429226 0.73677672,24.055967 -0.28560676,24.406106 C -0.082537967,25.323454 0.12053996,26.240806 0.32362793,27.158165 C 0.52669601,28.215564 0.62823488,29.143421 0.62824528,29.941738 C 0.62823488,30.901097 0.22558032,31.713408 -0.57972001,32.378677 C -1.3360194,33.001904 -2.2043529,33.313523 -3.1847231,33.313536 C -4.1370952,33.313523 -4.9774181,33.04742 -5.7056939,32.51523 C -6.5110069,31.92699 -6.9136617,31.167198 -6.913659,30.235851 C -6.9136617,29.612602 -6.7210877,29.052386 -6.3359366,28.555203 C -5.9157784,28.008985 -5.4045821,27.735881 -4.8023459,27.735888 C -4.2141248,27.735881 -3.7309391,27.952964 -3.3527878,28.387139 C -2.9886542,28.793287 -2.8065843,29.293978 -2.8065775,29.889218 C -2.8065843,30.498442 -3.0009089,30.974624 -3.3895519,31.317768 C -3.7782074,31.660889 -4.277149,31.82195 -4.8863783,31.800954 C -4.3961947,32.354154 -3.7799581,32.630761 -3.0376664,32.630774 C -2.1203205,32.630761 -1.392041,32.28763 -0.85282503,31.601377 C -0.36264565,30.978127 -0.11755154,30.193825 -0.11754204,29.248471 C -0.11755154,28.597212 -0.21558911,27.826916 -0.41165529,26.937582 C -0.59373437,26.181284 -0.77930555,25.421491 -0.96836948,24.658203 C -1.5916176,24.81926 -2.2848838,24.899791 -3.0481704,24.899797 C -4.8758791,24.899791 -6.4619882,24.080476 -7.8065029,22.44185 C -9.0879968,20.88725 -9.7287428,19.175093 -9.728743,17.305372 C -9.7287428,15.645737 -9.1195089,13.940582 -7.9010391,12.189902 C -7.200772,11.181522 -5.9753012,9.7949895 -4.2246235,8.0303 C -4.6657983,6.1045723 -4.8863831,4.7635571 -4.8863783,4.0072509 C -4.8863831,2.5086912 -4.7568333,1.2972258 -4.4977286,0.37285143 C -4.1686073,-0.81758637 -3.5663761,-1.8644885 -2.6910328,-2.7678581 C -2.3969269,-3.0619484 -2.1518328,-3.2090048 -1.9557498,-3.2090279 C -1.2975046,-3.2090048 -0.71978267,-2.3896903 -0.2225824,-0.7510815 C 0.17656154,0.56544481 0.37613816,1.6823737 0.3761482,2.5997089 C 0.37613816,4.1753313 0.096030481,5.6739068 -0.46417538,7.0954401 C -1.0524104,8.5870257 -1.8962346,9.8475098 -2.9956502,10.876896 L -2.2813751,14.427264 C -1.9942722,14.364245 -1.7246686,14.332733 -1.4725636,14.332728 C -0.13505824,14.332733 0.96436414,14.882444 1.8257063,15.981861 C 2.6240015,17.004258 3.0231548,18.198216 3.0231675,19.563741 L 3.0231675,19.563741 z M -0.45367147,1.6018245 C -0.45368062,0.50242063 -0.86333791,-0.047290463 -1.6826445,-0.047310362 C -2.4389429,-0.047290463 -3.0551797,0.71950396 -3.5313564,2.2530754 C -3.8884998,3.4225421 -4.0670684,4.5149617 -4.0670628,5.5303374 C -4.0670684,6.3286582 -3.9305159,6.9834097 -3.657405,7.4945937 C -2.7820748,6.822348 -2.0397897,5.9470117 -1.4305475,4.8685826 C -0.77930555,3.7201565 -0.45368062,2.6312382 -0.45367147,1.6018245 L -0.45367147,1.6018245 z M 1.6051213,20.120455 C 1.4790617,19.189097 1.1184233,18.418801 0.52320474,17.809566 C -0.11405006,17.16532 -0.89134869,16.846698 -1.8086931,16.853699 L -0.43266329,23.754856 C 0.55470679,22.823494 1.2339676,21.612028 1.6051213,20.120455 L 1.6051213,20.120455 z M -1.0839141,23.975441 L -2.4599439,16.937731 C -3.0691851,17.147814 -3.57688,17.497948 -3.9830305,17.988134 C -4.4172029,18.506335 -4.6342862,19.073553 -4.6342812,19.68979 C -4.6342862,20.348043 -4.4522163,20.862741 -4.0880708,21.233885 C -3.6749177,21.598023 -3.2617591,21.958662 -2.8485936,22.315802 L -3.0376664,22.44185 C -3.8920011,22.245773 -4.5747634,21.787097 -5.0859551,21.06582 C -5.5831506,20.379555 -5.8317462,19.58825 -5.8317424,18.691905 C -5.8317462,17.830577 -5.55514,17.011262 -5.0019227,16.233958 C -4.4627204,15.484675 -3.7869607,14.938465 -2.9746422,14.595328 L -3.5733726,11.412603 C -6.703581,14.073634 -8.2686821,16.717148 -8.2686808,19.343156 C -8.2686821,20.694676 -7.6944615,21.860624 -6.5460175,22.841003 C -5.4465981,23.786364 -4.2141248,24.259044 -2.8485936,24.25905 C -2.1833449,24.259044 -1.5951189,24.164509 -1.0839141,23.975441 L -1.0839141,23.975441 z " id="text2175"/>
  </g><g id="link" transform="translate(0,0)">
    <rect x="0" width="1" height="1.2026236" y="-12" id="rect2177" style="opacity:0.98999999;fill:#000000;fill-opacity:1;stroke-width:0.2;stroke-miterlimit:4;stroke-dasharray:none"/>
    <rect x="0" width="1" height="0.34360674" y="-10" id="rect2179" style="opacity:0.98999999;fill:#000000;fill-opacity:1;stroke-width:0.2;stroke-miterlimit:4;stroke-dasharray:none"/>
  </g><g id="sharp" transform="translate(0,0)">
    <path style="font-size:25.10245132px;font-style:normal;font-weight:normal;fill:#000000;fill-opacity:1;stroke:none;stroke-width:1px;stroke-linecap:butt;stroke-linejoin:miter;stroke-opacity:1;font-family:Power Tab" d="M -9.1579132,3.0589797 L -9.8810795,3.2183214 L -9.8810795,5.7555321 L -10.334591,5.7555321 L -10.334591,3.3163779 L -11.351926,3.549262 L -11.351926,6.1845291 L -11.805437,6.1845291 L -11.805437,3.6595755 L -12.528604,3.8189172 L -12.528604,2.4093557 L -11.805437,2.250014 L -11.805437,0.3133991 L -12.528604,0.47274083 L -12.528604,-0.88779242 L -11.805437,-1.0471341 L -11.805437,-3.6824013 L -11.351926,-3.6824013 L -11.351926,-1.1574477 L -10.334591,-1.3903317 L -10.334591,-4.0133418 L -9.8810795,-4.0133418 L -9.8810795,-1.4761311 L -9.1579132,-1.6477299 L -9.1579132,-0.2749396 L -9.8810795,-0.11559787 L -9.8810795,1.821017 L -9.1579132,1.6494182 L -9.1579132,3.0589797 z M -10.334591,1.9068164 L -10.334591,-0.01754142 L -11.351926,0.20308559 L -11.351926,2.1397005 L -10.334591,1.9068164 z " id="text2184"/>
  </g><g id="bemol" transform="translate(0,0)">
    <path style="font-size:29.58395386px;font-style:normal;font-weight:normal;fill:#000000;fill-opacity:1;stroke:none;stroke-width:1px;stroke-linecap:butt;stroke-linejoin:miter;stroke-opacity:1;font-family:Power Tab" d="M -8.7981729,2.0193866 C -8.7981766,2.5394175 -8.8944784,3.0594474 -9.0870787,3.5794779 C -10.233074,4.8217711 -11.273134,5.6884876 -12.207261,6.1796301 L -12.438386,6.1796301 L -12.438386,-3.6865029 L -12.207261,-3.6865029 L -12.207261,1.2537862 C -11.831684,0.73375808 -11.220168,0.47374312 -10.37271,0.47374058 C -9.3230216,0.47374312 -8.7981766,0.98895795 -8.7981729,2.0193866 L -8.7981729,2.0193866 z M -9.997132,2.2505112 C -9.9971345,1.8653047 -10.112697,1.6967764 -10.343819,1.7449261 C -10.661617,1.5715841 -10.993858,1.4849124 -11.340544,1.4849109 C -11.716122,1.4849124 -12.005028,1.6293652 -12.207261,1.9182696 L -12.207261,5.5295921 C -11.677602,5.134752 -11.200907,4.6484277 -10.777178,4.0706178 C -10.257149,3.3868737 -9.9971345,2.7801721 -9.997132,2.2505112 L -9.997132,2.2505112 z " id="text2188"/>
  </g><g id="becare" transform="translate(0,0)">
    <path style="font-size:24.76570511px;font-style:normal;font-weight:normal;fill:#000000;fill-opacity:1;stroke:none;stroke-width:1px;stroke-linecap:butt;stroke-linejoin:miter;stroke-opacity:1;font-family:Power Tab" d="M -9.9528744,-1.6928003 L -9.9528744,6.227872 L -10.122171,6.227872 L -10.122171,3.2409926 L -12.528604,4.1842177 L -12.528604,-3.7485473 L -12.3714,-3.7485473 L -12.359308,-0.74957515 L -9.9528744,-1.6928003 z M -10.110079,2.1889338 L -10.110079,-0.56818571 L -12.359308,0.30248361 L -12.359308,3.0716958 L -10.110079,2.1889338 z " id="text2197"/>
  </g></defs><g id="score" transform="translate(40,50)"><g id="note_3" transform="matrix(1.0,0.0,0.0,1.0,45.0,0.0)"><use transform="matrix(1.0,0.0,0.0,1.0,0.0,0.0)" xmlns:xlink="http://www.w3.org/1999/xlink" href="#barre" xlink:type="simple" xlink:actuate="onLoad" xlink:show="embed" xlink:href="#barre"/><use transform="matrix(1.0,0.0,0.0,1.0,0.0,0.0)" xmlns:xlink="http://www.w3.org/1999/xlink" href="#note" xlink:type="simple" xlink:actuate="onLoad" xlink:show="embed" xlink:href="#note"/></g><g id="note_11" transform="matrix(1.0,0.0,0.0,1.0,165.0,20.0)"><use transform="matrix(1.0,0.0,0.0,1.0,0.0,0.0)" xmlns:xlink="http://www.w3.org/1999/xlink" href="#barre" xlink:type="simple" xlink:actuate="onLoad" xlink:show="embed" xlink:href="#barre"/><use transform="matrix(1.0,0.0,0.0,1.0,0.0,0.0)" xmlns:xlink="http://www.w3.org/1999/xlink" href="#sharp" xlink:type="simple" xlink:actuate="onLoad" xlink:show="embed" xlink:href="#sharp"/><use transform="matrix(1.0,0.0,0.0,1.0,0.0,0.0)" xmlns:xlink="http://www.w3.org/1999/xlink" href="#note" xlink:type="simple" xlink:actuate="onLoad" xlink:show="embed" xlink:href="#note"/></g><g id="note_7" transform="matrix(1.0,0.0,0.0,1.0,105.0,10.0)"><use transform="matrix(1.0,0.0,0.0,1.0,0.0,0.0)" xmlns:xlink="http://www.w3.org/1999/xlink" href="#barre" xlink:type="simple" xlink:actuate="onLoad" xlink:show="embed" xlink:href="#barre"/><use transform="matrix(1.0,0.0,0.0,1.0,0.0,0.0)" xmlns:xlink="http://www.w3.org/1999/xlink" href="#note" xlink:type="simple" xlink:actuate="onLoad" xlink:show="embed" xlink:href="#note"/></g><g id="note_0" transform="matrix(1.0,0.0,0.0,1.0,0.0,25.0)"><use transform="matrix(1.0,0.0,0.0,1.0,0.0,0.0)" xmlns:xlink="http://www.w3.org/1999/xlink" href="#barre" xlink:type="simple" xlink:actuate="onLoad" xlink:show="embed" xlink:href="#barre"/><use transform="matrix(1.0,0.0,0.0,1.0,0.0,0.0)" xmlns:xlink="http://www.w3.org/1999/xlink" href="#note" xlink:type="simple" xlink:actuate="onLoad" xlink:show="embed" xlink:href="#note"/></g><g id="note_2" transform="matrix(1.0,0.0,0.0,1.0,30.0,30.0)"><use transform="matrix(1.0,0.0,0.0,1.0,0.0,0.0)" xmlns:xlink="http://www.w3.org/1999/xlink" href="#barre" xlink:type="simple" xlink:actuate="onLoad" xlink:show="embed" xlink:href="#barre"/><use transform="matrix(1.0,0.0,0.0,1.0,0.0,0.0)" xmlns:xlink="http://www.w3.org/1999/xlink" href="#note" xlink:type="simple" xlink:actuate="onLoad" xlink:show="embed" xlink:href="#note"/></g><g id="note_8" transform="matrix(1.0,0.0,0.0,1.0,120.0,15.0)"><use transform="matrix(1.0,0.0,0.0,1.0,0.0,0.0)" xmlns:xlink="http://www.w3.org/1999/xlink" href="#barre" xlink:type="simple" xlink:actuate="onLoad" xlink:show="embed" xlink:href="#barre"/><use transform="matrix(1.0,0.0,0.0,1.0,0.0,0.0)" xmlns:xlink="http://www.w3.org/1999/xlink" href="#note" xlink:type="simple" xlink:actuate="onLoad" xlink:show="embed" xlink:href="#note"/></g><g id="note_1" transform="matrix(1.0,0.0,0.0,1.0,15.0,25.0)"><use transform="matrix(1.0,0.0,0.0,1.0,0.0,0.0)" xmlns:xlink="http://www.w3.org/1999/xlink" href="#barre" xlink:type="simple" xlink:actuate="onLoad" xlink:show="embed" xlink:href="#barre"/><use transform="matrix(1.0,0.0,0.0,1.0,0.0,0.0)" xmlns:xlink="http://www.w3.org/1999/xlink" href="#sharp" xlink:type="simple" xlink:actuate="onLoad" xlink:show="embed" xlink:href="#sharp"/><use transform="matrix(1.0,0.0,0.0,1.0,0.0,0.0)" xmlns:xlink="http://www.w3.org/1999/xlink" href="#note" xlink:type="simple" xlink:actuate="onLoad" xlink:show="embed" xlink:href="#note"/></g><g id="note_6" transform="matrix(1.0,0.0,0.0,1.0,90.0,5.0)"><use transform="matrix(1.0,0.0,0.0,1.0,0.0,0.0)" xmlns:xlink="http://www.w3.org/1999/xlink" href="#barre" xlink:type="simple" xlink:actuate="onLoad" xlink:show="embed" xlink:href="#barre"/><use transform="matrix(1.0,0.0,0.0,1.0,0.0,0.0)" xmlns:xlink="http://www.w3.org/1999/xlink" href="#sharp" xlink:type="simple" xlink:actuate="onLoad" xlink:show="embed" xlink:href="#sharp"/><use transform="matrix(1.0,0.0,0.0,1.0,0.0,0.0)" xmlns:xlink="http://www.w3.org/1999/xlink" href="#note" xlink:type="simple" xlink:actuate="onLoad" xlink:show="embed" xlink:href="#note"/></g><g id="note_4" transform="matrix(1.0,0.0,0.0,1.0,60.0,0.0)"><use transform="matrix(1.0,0.0,0.0,1.0,0.0,0.0)" xmlns:xlink="http://www.w3.org/1999/xlink" href="#barre" xlink:type="simple" xlink:actuate="onLoad" xlink:show="embed" xlink:href="#barre"/><use transform="matrix(1.0,0.0,0.0,1.0,0.0,0.0)" xmlns:xlink="http://www.w3.org/1999/xlink" href="#sharp" xlink:type="simple" xlink:actuate="onLoad" xlink:show="embed" xlink:href="#sharp"/><use transform="matrix(1.0,0.0,0.0,1.0,0.0,0.0)" xmlns:xlink="http://www.w3.org/1999/xlink" href="#note" xlink:type="simple" xlink:actuate="onLoad" xlink:show="embed" xlink:href="#note"/></g><g id="note_9" transform="matrix(1.0,0.0,0.0,1.0,135.0,15.0)"><use transform="matrix(1.0,0.0,0.0,1.0,0.0,0.0)" xmlns:xlink="http://www.w3.org/1999/xlink" href="#barre" xlink:type="simple" xlink:actuate="onLoad" xlink:show="embed" xlink:href="#barre"/><use transform="matrix(1.0,0.0,0.0,1.0,0.0,0.0)" xmlns:xlink="http://www.w3.org/1999/xlink" href="#sharp" xlink:type="simple" xlink:actuate="onLoad" xlink:show="embed" xlink:href="#sharp"/><use transform="matrix(1.0,0.0,0.0,1.0,0.0,0.0)" xmlns:xlink="http://www.w3.org/1999/xlink" href="#note" xlink:type="simple" xlink:actuate="onLoad" xlink:show="embed" xlink:href="#note"/></g><g id="note_5" transform="matrix(1.0,0.0,0.0,1.0,75.0,5.0)"><use transform="matrix(1.0,0.0,0.0,1.0,0.0,0.0)" xmlns:xlink="http://www.w3.org/1999/xlink" href="#barre" xlink:type="simple" xlink:actuate="onLoad" xlink:show="embed" xlink:href="#barre"/><use transform="matrix(1.0,0.0,0.0,1.0,0.0,0.0)" xmlns:xlink="http://www.w3.org/1999/xlink" href="#note" xlink:type="simple" xlink:actuate="onLoad" xlink:show="embed" xlink:href="#note"/></g><g id="note_10" transform="matrix(1.0,0.0,0.0,1.0,150.0,20.0)"><use transform="matrix(1.0,0.0,0.0,1.0,0.0,0.0)" xmlns:xlink="http://www.w3.org/1999/xlink" href="#barre" xlink:type="simple" xlink:actuate="onLoad" xlink:show="embed" xlink:href="#barre"/><use transform="matrix(1.0,0.0,0.0,1.0,0.0,0.0)" xmlns:xlink="http://www.w3.org/1999/xlink" href="#note" xlink:type="simple" xlink:actuate="onLoad" xlink:show="embed" xlink:href="#note"/></g></g></svg>